{
	"asset":{
		"generator":"Khronos glTF Blender I/O v5.0.21",
		"version":"2.0"
	},
	"scene":0,
	"scenes":[
		{
			"name":"Scene",
			"nodes":[
				0
			]
		}
	],
	"nodes":[
		{
			"mesh":0,
			"name":"AlcoholDisp_2_Base"
		}
	],
	"materials":[
		{
			"doubleSided":true,
			"name":"Palette",
			"pbrMetallicRoughness":{
				"baseColorTexture":{
					"index":0
				},
				"metallicFactor":0,
				"roughnessFactor":0.5
			}
		}
	],
	"meshes":[
		{
			"name":"AlcoholDisp_2_Base",
			"primitives":[
				{
					"attributes":{
						"POSITION":0,
						"NORMAL":1,
						"TEXCOORD_0":2
					},
					"indices":3,
					"material":0
				}
			]
		}
	],
	"textures":[
		{
			"sampler":0,
			"source":0
		}
	],
	"images":[
		{
			"mimeType":"image/png",
			"name":"palette1",
			"uri":"textures/palette1.png"
		}
	],
	"accessors":[
		{
			"bufferView":0,
			"componentType":5126,
			"count":151,
			"max":[
				0.09554481506347656,
				0.23815542459487915,
				0.09554387629032135
			],
			"min":[
				-0.09554481506347656,
				-0.07259958982467651,
				-0.09554386883974075
			],
			"type":"VEC3"
		},
		{
			"bufferView":1,
			"componentType":5126,
			"count":151,
			"type":"VEC3"
		},
		{
			"bufferView":2,
			"componentType":5126,
			"count":151,
			"type":"VEC2"
		},
		{
			"bufferView":3,
			"componentType":5123,
			"count":564,
			"type":"SCALAR"
		}
	],
	"bufferViews":[
		{
			"buffer":0,
			"byteLength":1812,
			"byteOffset":0,
			"target":34962
		},
		{
			"buffer":0,
			"byteLength":1812,
			"byteOffset":1812,
			"target":34962
		},
		{
			"buffer":0,
			"byteLength":1208,
			"byteOffset":3624,
			"target":34962
		},
		{
			"buffer":0,
			"byteLength":1128,
			"byteOffset":4832,
			"target":34963
		}
	],
	"samplers":[
		{
			"magFilter":9729,
			"minFilter":9987
		}
	],
	"buffers":[
		{
			"byteLength":5960,
			"uri":"AlcoholDisp_2_Base.bin"
		}
	]
}
