{
	"asset":{
		"generator":"Khronos glTF Blender I/O v5.0.21",
		"version":"2.0"
	},
	"scene":0,
	"scenes":[
		{
			"name":"Scene",
			"nodes":[
				0
			]
		}
	],
	"nodes":[
		{
			"mesh":0,
			"name":"Computer_old_mouse"
		}
	],
	"materials":[
		{
			"doubleSided":true,
			"name":"Palette",
			"pbrMetallicRoughness":{
				"baseColorTexture":{
					"index":0
				},
				"metallicFactor":0,
				"roughnessFactor":0.5
			}
		}
	],
	"meshes":[
		{
			"name":"Computer_old_mouse",
			"primitives":[
				{
					"attributes":{
						"POSITION":0,
						"NORMAL":1,
						"TEXCOORD_0":2
					},
					"indices":3,
					"material":0
				}
			]
		}
	],
	"textures":[
		{
			"sampler":0,
			"source":0
		}
	],
	"images":[
		{
			"mimeType":"image/png",
			"name":"palette1",
			"uri":"textures/palette1.png"
		}
	],
	"accessors":[
		{
			"bufferView":0,
			"componentType":5126,
			"count":111,
			"max":[
				0.041324615478515625,
				0.9923823475837708,
				0.07344865798950195
			],
			"min":[
				-0.041324615478515625,
				0.9503923654556274,
				-0.07344818115234375
			],
			"type":"VEC3"
		},
		{
			"bufferView":1,
			"componentType":5126,
			"count":111,
			"type":"VEC3"
		},
		{
			"bufferView":2,
			"componentType":5126,
			"count":111,
			"type":"VEC2"
		},
		{
			"bufferView":3,
			"componentType":5123,
			"count":192,
			"type":"SCALAR"
		}
	],
	"bufferViews":[
		{
			"buffer":0,
			"byteLength":1332,
			"byteOffset":0,
			"target":34962
		},
		{
			"buffer":0,
			"byteLength":1332,
			"byteOffset":1332,
			"target":34962
		},
		{
			"buffer":0,
			"byteLength":888,
			"byteOffset":2664,
			"target":34962
		},
		{
			"buffer":0,
			"byteLength":384,
			"byteOffset":3552,
			"target":34963
		}
	],
	"samplers":[
		{
			"magFilter":9729,
			"minFilter":9987
		}
	],
	"buffers":[
		{
			"byteLength":3936,
			"uri":"Computer_old_mouse.bin"
		}
	]
}
