{
	"asset":{
		"generator":"Khronos glTF Blender I/O v5.0.21",
		"version":"2.0"
	},
	"scene":0,
	"scenes":[
		{
			"name":"Scene",
			"nodes":[
				0
			]
		}
	],
	"nodes":[
		{
			"mesh":0,
			"name":"Computer_Case"
		}
	],
	"materials":[
		{
			"doubleSided":true,
			"name":"Palette",
			"pbrMetallicRoughness":{
				"baseColorTexture":{
					"index":0
				},
				"metallicFactor":0,
				"roughnessFactor":0.5
			}
		}
	],
	"meshes":[
		{
			"name":"Computer_Case",
			"primitives":[
				{
					"attributes":{
						"POSITION":0,
						"NORMAL":1,
						"TEXCOORD_0":2
					},
					"indices":3,
					"material":0
				}
			]
		}
	],
	"textures":[
		{
			"sampler":0,
			"source":0
		}
	],
	"images":[
		{
			"mimeType":"image/png",
			"name":"palette1",
			"uri":"textures/palette1.png"
		}
	],
	"accessors":[
		{
			"bufferView":0,
			"componentType":5126,
			"count":175,
			"max":[
				0.08836603164672852,
				1.3614434003829956,
				0.18390560150146484
			],
			"min":[
				-0.08836555480957031,
				0.9475643634796143,
				-0.18390513956546783
			],
			"type":"VEC3"
		},
		{
			"bufferView":1,
			"componentType":5126,
			"count":175,
			"type":"VEC3"
		},
		{
			"bufferView":2,
			"componentType":5126,
			"count":175,
			"type":"VEC2"
		},
		{
			"bufferView":3,
			"componentType":5123,
			"count":345,
			"type":"SCALAR"
		}
	],
	"bufferViews":[
		{
			"buffer":0,
			"byteLength":2100,
			"byteOffset":0,
			"target":34962
		},
		{
			"buffer":0,
			"byteLength":2100,
			"byteOffset":2100,
			"target":34962
		},
		{
			"buffer":0,
			"byteLength":1400,
			"byteOffset":4200,
			"target":34962
		},
		{
			"buffer":0,
			"byteLength":690,
			"byteOffset":5600,
			"target":34963
		}
	],
	"samplers":[
		{
			"magFilter":9729,
			"minFilter":9987
		}
	],
	"buffers":[
		{
			"byteLength":6292,
			"uri":"Computer_Case.bin"
		}
	]
}
