{
	"asset":{
		"generator":"Khronos glTF Blender I/O v5.0.21",
		"version":"2.0"
	},
	"scene":0,
	"scenes":[
		{
			"name":"Scene",
			"nodes":[
				0
			]
		}
	],
	"nodes":[
		{
			"mesh":0,
			"name":"Controller_1"
		}
	],
	"materials":[
		{
			"doubleSided":true,
			"name":"Palette",
			"pbrMetallicRoughness":{
				"baseColorTexture":{
					"index":0
				},
				"metallicFactor":0,
				"roughnessFactor":0.5
			}
		}
	],
	"meshes":[
		{
			"name":"Controller_1",
			"primitives":[
				{
					"attributes":{
						"POSITION":0,
						"NORMAL":1,
						"TEXCOORD_0":2
					},
					"indices":3,
					"material":0
				}
			]
		}
	],
	"textures":[
		{
			"sampler":0,
			"source":0
		}
	],
	"images":[
		{
			"mimeType":"image/png",
			"name":"palette1",
			"uri":"textures/palette1.png"
		}
	],
	"accessors":[
		{
			"bufferView":0,
			"componentType":5126,
			"count":184,
			"max":[
				0.042240142822265625,
				0.9741824269294739,
				0.09929323196411133
			],
			"min":[
				-0.04224109649658203,
				0.9492064118385315,
				-0.09929323196411133
			],
			"type":"VEC3"
		},
		{
			"bufferView":1,
			"componentType":5126,
			"count":184,
			"type":"VEC3"
		},
		{
			"bufferView":2,
			"componentType":5126,
			"count":184,
			"type":"VEC2"
		},
		{
			"bufferView":3,
			"componentType":5123,
			"count":360,
			"type":"SCALAR"
		}
	],
	"bufferViews":[
		{
			"buffer":0,
			"byteLength":2208,
			"byteOffset":0,
			"target":34962
		},
		{
			"buffer":0,
			"byteLength":2208,
			"byteOffset":2208,
			"target":34962
		},
		{
			"buffer":0,
			"byteLength":1472,
			"byteOffset":4416,
			"target":34962
		},
		{
			"buffer":0,
			"byteLength":720,
			"byteOffset":5888,
			"target":34963
		}
	],
	"samplers":[
		{
			"magFilter":9729,
			"minFilter":9987
		}
	],
	"buffers":[
		{
			"byteLength":6608,
			"uri":"Controller_1.bin"
		}
	]
}
