{
	"asset":{
		"generator":"Khronos glTF Blender I/O v5.0.21",
		"version":"2.0"
	},
	"scene":0,
	"scenes":[
		{
			"name":"Scene",
			"nodes":[
				0
			]
		}
	],
	"nodes":[
		{
			"mesh":0,
			"name":"Door_Handle2"
		}
	],
	"materials":[
		{
			"doubleSided":true,
			"name":"Palette",
			"pbrMetallicRoughness":{
				"baseColorTexture":{
					"index":0
				},
				"metallicFactor":0,
				"roughnessFactor":0.5
			}
		}
	],
	"meshes":[
		{
			"name":"Door_Handle2",
			"primitives":[
				{
					"attributes":{
						"POSITION":0,
						"NORMAL":1,
						"TEXCOORD_0":2
					},
					"indices":3,
					"material":0
				}
			]
		}
	],
	"textures":[
		{
			"sampler":0,
			"source":0
		}
	],
	"images":[
		{
			"mimeType":"image/png",
			"name":"palette1",
			"uri":"textures/palette1.png"
		}
	],
	"accessors":[
		{
			"bufferView":0,
			"componentType":5126,
			"count":40,
			"max":[
				0.3865966796875,
				1.1044633388519287,
				0.046378135681152344
			],
			"min":[
				-0.3865957260131836,
				1.058164358139038,
				-0.04637765884399414
			],
			"type":"VEC3"
		},
		{
			"bufferView":1,
			"componentType":5126,
			"count":40,
			"type":"VEC3"
		},
		{
			"bufferView":2,
			"componentType":5126,
			"count":40,
			"type":"VEC2"
		},
		{
			"bufferView":3,
			"componentType":5123,
			"count":72,
			"type":"SCALAR"
		}
	],
	"bufferViews":[
		{
			"buffer":0,
			"byteLength":480,
			"byteOffset":0,
			"target":34962
		},
		{
			"buffer":0,
			"byteLength":480,
			"byteOffset":480,
			"target":34962
		},
		{
			"buffer":0,
			"byteLength":320,
			"byteOffset":960,
			"target":34962
		},
		{
			"buffer":0,
			"byteLength":144,
			"byteOffset":1280,
			"target":34963
		}
	],
	"samplers":[
		{
			"magFilter":9729,
			"minFilter":9987
		}
	],
	"buffers":[
		{
			"byteLength":1424,
			"uri":"Door_Handle2.bin"
		}
	]
}
