{
	"asset":{
		"generator":"Khronos glTF Blender I/O v5.0.21",
		"version":"2.0"
	},
	"scene":0,
	"scenes":[
		{
			"name":"Scene",
			"nodes":[
				0
			]
		}
	],
	"nodes":[
		{
			"mesh":0,
			"name":"Fruit_Banana_B"
		}
	],
	"materials":[
		{
			"doubleSided":true,
			"name":"Palette",
			"pbrMetallicRoughness":{
				"baseColorTexture":{
					"index":0
				},
				"metallicFactor":0,
				"roughnessFactor":0.5
			}
		}
	],
	"meshes":[
		{
			"name":"Fruit_Banana_B",
			"primitives":[
				{
					"attributes":{
						"POSITION":0,
						"NORMAL":1,
						"TEXCOORD_0":2
					},
					"indices":3,
					"material":0
				}
			]
		}
	],
	"textures":[
		{
			"sampler":0,
			"source":0
		}
	],
	"images":[
		{
			"mimeType":"image/png",
			"name":"palette1",
			"uri":"textures/palette1.png"
		}
	],
	"accessors":[
		{
			"bufferView":0,
			"componentType":5126,
			"count":105,
			"max":[
				0.02242755889892578,
				1.2071102857589722,
				0.038600437343120575
			],
			"min":[
				-0.02242755889892578,
				0.950776219367981,
				-0.03860044479370117
			],
			"type":"VEC3"
		},
		{
			"bufferView":1,
			"componentType":5126,
			"count":105,
			"type":"VEC3"
		},
		{
			"bufferView":2,
			"componentType":5126,
			"count":105,
			"type":"VEC2"
		},
		{
			"bufferView":3,
			"componentType":5123,
			"count":426,
			"type":"SCALAR"
		}
	],
	"bufferViews":[
		{
			"buffer":0,
			"byteLength":1260,
			"byteOffset":0,
			"target":34962
		},
		{
			"buffer":0,
			"byteLength":1260,
			"byteOffset":1260,
			"target":34962
		},
		{
			"buffer":0,
			"byteLength":840,
			"byteOffset":2520,
			"target":34962
		},
		{
			"buffer":0,
			"byteLength":852,
			"byteOffset":3360,
			"target":34963
		}
	],
	"samplers":[
		{
			"magFilter":9729,
			"minFilter":9987
		}
	],
	"buffers":[
		{
			"byteLength":4212,
			"uri":"Fruit_Banana_B.bin"
		}
	]
}
