{
	"asset":{
		"generator":"Khronos glTF Blender I/O v5.0.21",
		"version":"2.0"
	},
	"scene":0,
	"scenes":[
		{
			"name":"Scene",
			"nodes":[
				0
			]
		}
	],
	"nodes":[
		{
			"mesh":0,
			"name":"Fruit_Orange"
		}
	],
	"materials":[
		{
			"doubleSided":true,
			"name":"Palette",
			"pbrMetallicRoughness":{
				"baseColorTexture":{
					"index":0
				},
				"metallicFactor":0,
				"roughnessFactor":0.5
			}
		}
	],
	"meshes":[
		{
			"name":"Fruit_Orange",
			"primitives":[
				{
					"attributes":{
						"POSITION":0,
						"NORMAL":1,
						"TEXCOORD_0":2
					},
					"indices":3,
					"material":0
				}
			]
		}
	],
	"textures":[
		{
			"sampler":0,
			"source":0
		}
	],
	"images":[
		{
			"mimeType":"image/png",
			"name":"palette1",
			"uri":"textures/palette1.png"
		}
	],
	"accessors":[
		{
			"bufferView":0,
			"componentType":5126,
			"count":105,
			"max":[
				0.050110816955566406,
				1.0531221628189087,
				0.0526890754699707
			],
			"min":[
				-0.050110816955566406,
				0.948306143283844,
				-0.0526888370513916
			],
			"type":"VEC3"
		},
		{
			"bufferView":1,
			"componentType":5126,
			"count":105,
			"type":"VEC3"
		},
		{
			"bufferView":2,
			"componentType":5126,
			"count":105,
			"type":"VEC2"
		},
		{
			"bufferView":3,
			"componentType":5123,
			"count":378,
			"type":"SCALAR"
		}
	],
	"bufferViews":[
		{
			"buffer":0,
			"byteLength":1260,
			"byteOffset":0,
			"target":34962
		},
		{
			"buffer":0,
			"byteLength":1260,
			"byteOffset":1260,
			"target":34962
		},
		{
			"buffer":0,
			"byteLength":840,
			"byteOffset":2520,
			"target":34962
		},
		{
			"buffer":0,
			"byteLength":756,
			"byteOffset":3360,
			"target":34963
		}
	],
	"samplers":[
		{
			"magFilter":9729,
			"minFilter":9987
		}
	],
	"buffers":[
		{
			"byteLength":4116,
			"uri":"Fruit_Orange.bin"
		}
	]
}
