{
	"asset":{
		"generator":"Khronos glTF Blender I/O v5.0.21",
		"version":"2.0"
	},
	"scene":0,
	"scenes":[
		{
			"name":"Scene",
			"nodes":[
				0
			]
		}
	],
	"nodes":[
		{
			"mesh":0,
			"name":"Office_Desk_3"
		}
	],
	"materials":[
		{
			"doubleSided":true,
			"name":"Palette",
			"pbrMetallicRoughness":{
				"baseColorTexture":{
					"index":0
				},
				"metallicFactor":0,
				"roughnessFactor":0.5
			}
		}
	],
	"meshes":[
		{
			"name":"Office_Desk_3",
			"primitives":[
				{
					"attributes":{
						"POSITION":0,
						"NORMAL":1,
						"TEXCOORD_0":2
					},
					"indices":3,
					"material":0
				}
			]
		}
	],
	"textures":[
		{
			"sampler":0,
			"source":0
		}
	],
	"images":[
		{
			"mimeType":"image/png",
			"name":"palette1",
			"uri":"textures/palette1.png"
		}
	],
	"accessors":[
		{
			"bufferView":0,
			"componentType":5126,
			"count":186,
			"max":[
				1.1842520236968994,
				0.9490370750427246,
				0.3749999701976776
			],
			"min":[
				-1.1842517852783203,
				-0.0018849968910217285,
				-0.3750000298023224
			],
			"type":"VEC3"
		},
		{
			"bufferView":1,
			"componentType":5126,
			"count":186,
			"type":"VEC3"
		},
		{
			"bufferView":2,
			"componentType":5126,
			"count":186,
			"type":"VEC2"
		},
		{
			"bufferView":3,
			"componentType":5123,
			"count":300,
			"type":"SCALAR"
		}
	],
	"bufferViews":[
		{
			"buffer":0,
			"byteLength":2232,
			"byteOffset":0,
			"target":34962
		},
		{
			"buffer":0,
			"byteLength":2232,
			"byteOffset":2232,
			"target":34962
		},
		{
			"buffer":0,
			"byteLength":1488,
			"byteOffset":4464,
			"target":34962
		},
		{
			"buffer":0,
			"byteLength":600,
			"byteOffset":5952,
			"target":34963
		}
	],
	"samplers":[
		{
			"magFilter":9729,
			"minFilter":9987
		}
	],
	"buffers":[
		{
			"byteLength":6552,
			"uri":"Office_Desk_3.bin"
		}
	]
}
