{
	"asset":{
		"generator":"Khronos glTF Blender I/O v5.0.21",
		"version":"2.0"
	},
	"scene":0,
	"scenes":[
		{
			"name":"Scene",
			"nodes":[
				0
			]
		}
	],
	"nodes":[
		{
			"mesh":0,
			"name":"Office_Files_F"
		}
	],
	"materials":[
		{
			"doubleSided":true,
			"name":"Palette",
			"pbrMetallicRoughness":{
				"baseColorTexture":{
					"index":0
				},
				"metallicFactor":0,
				"roughnessFactor":0.5
			}
		}
	],
	"meshes":[
		{
			"name":"Office_Files_F",
			"primitives":[
				{
					"attributes":{
						"POSITION":0,
						"NORMAL":1,
						"TEXCOORD_0":2
					},
					"indices":3,
					"material":0
				}
			]
		}
	],
	"textures":[
		{
			"sampler":0,
			"source":0
		}
	],
	"images":[
		{
			"mimeType":"image/png",
			"name":"palette1",
			"uri":"textures/palette1.png"
		}
	],
	"accessors":[
		{
			"bufferView":0,
			"componentType":5126,
			"count":208,
			"max":[
				0.12239933013916016,
				1.2112314701080322,
				0.06948186457157135
			],
			"min":[
				-0.12239933013916016,
				0.8174364566802979,
				-0.06948233395814896
			],
			"type":"VEC3"
		},
		{
			"bufferView":1,
			"componentType":5126,
			"count":208,
			"type":"VEC3"
		},
		{
			"bufferView":2,
			"componentType":5126,
			"count":208,
			"type":"VEC2"
		},
		{
			"bufferView":3,
			"componentType":5123,
			"count":324,
			"type":"SCALAR"
		}
	],
	"bufferViews":[
		{
			"buffer":0,
			"byteLength":2496,
			"byteOffset":0,
			"target":34962
		},
		{
			"buffer":0,
			"byteLength":2496,
			"byteOffset":2496,
			"target":34962
		},
		{
			"buffer":0,
			"byteLength":1664,
			"byteOffset":4992,
			"target":34962
		},
		{
			"buffer":0,
			"byteLength":648,
			"byteOffset":6656,
			"target":34963
		}
	],
	"samplers":[
		{
			"magFilter":9729,
			"minFilter":9987
		}
	],
	"buffers":[
		{
			"byteLength":7304,
			"uri":"Office_Files_F.bin"
		}
	]
}
