{
	"asset":{
		"generator":"Khronos glTF Blender I/O v5.0.21",
		"version":"2.0"
	},
	"scene":0,
	"scenes":[
		{
			"name":"Scene",
			"nodes":[
				0
			]
		}
	],
	"nodes":[
		{
			"mesh":0,
			"name":"Office_Desk_4_Two"
		}
	],
	"materials":[
		{
			"doubleSided":true,
			"name":"Palette",
			"pbrMetallicRoughness":{
				"baseColorTexture":{
					"index":0
				},
				"metallicFactor":0,
				"roughnessFactor":0.5
			}
		}
	],
	"meshes":[
		{
			"name":"Office_Desk_4_Two",
			"primitives":[
				{
					"attributes":{
						"POSITION":0,
						"NORMAL":1,
						"TEXCOORD_0":2
					},
					"indices":3,
					"material":0
				}
			]
		}
	],
	"textures":[
		{
			"sampler":0,
			"source":0
		}
	],
	"images":[
		{
			"mimeType":"image/png",
			"name":"palette1",
			"uri":"textures/palette1.png"
		}
	],
	"accessors":[
		{
			"bufferView":0,
			"componentType":5126,
			"count":325,
			"max":[
				1.1876834630966187,
				0.9490371346473694,
				1.6972229480743408
			],
			"min":[
				-1.1876835823059082,
				-0.0018851161003112793,
				-1.6972229480743408
			],
			"type":"VEC3"
		},
		{
			"bufferView":1,
			"componentType":5126,
			"count":325,
			"type":"VEC3"
		},
		{
			"bufferView":2,
			"componentType":5126,
			"count":325,
			"type":"VEC2"
		},
		{
			"bufferView":3,
			"componentType":5123,
			"count":543,
			"type":"SCALAR"
		}
	],
	"bufferViews":[
		{
			"buffer":0,
			"byteLength":3900,
			"byteOffset":0,
			"target":34962
		},
		{
			"buffer":0,
			"byteLength":3900,
			"byteOffset":3900,
			"target":34962
		},
		{
			"buffer":0,
			"byteLength":2600,
			"byteOffset":7800,
			"target":34962
		},
		{
			"buffer":0,
			"byteLength":1086,
			"byteOffset":10400,
			"target":34963
		}
	],
	"samplers":[
		{
			"magFilter":9729,
			"minFilter":9987
		}
	],
	"buffers":[
		{
			"byteLength":11488,
			"uri":"Office_Desk_4_Two.bin"
		}
	]
}
