{
	"asset":{
		"generator":"Khronos glTF Blender I/O v5.0.21",
		"version":"2.0"
	},
	"scene":0,
	"scenes":[
		{
			"name":"Scene",
			"nodes":[
				0
			]
		}
	],
	"nodes":[
		{
			"mesh":0,
			"name":"Wall_Standard_Alt_2"
		}
	],
	"materials":[
		{
			"doubleSided":true,
			"name":"Palette",
			"pbrMetallicRoughness":{
				"baseColorTexture":{
					"index":0
				},
				"metallicFactor":0,
				"roughnessFactor":0.5
			}
		}
	],
	"meshes":[
		{
			"name":"Wall_Standard_Alt_2",
			"primitives":[
				{
					"attributes":{
						"POSITION":0,
						"NORMAL":1,
						"TEXCOORD_0":2
					},
					"indices":3,
					"material":0
				}
			]
		}
	],
	"textures":[
		{
			"sampler":0,
			"source":0
		}
	],
	"images":[
		{
			"mimeType":"image/png",
			"name":"palette1",
			"uri":"textures/palette1.png"
		}
	],
	"accessors":[
		{
			"bufferView":0,
			"componentType":5126,
			"count":503,
			"max":[
				1,
				3.000000476837158,
				0.19738098978996277
			],
			"min":[
				-1,
				3.5762786865234375e-07,
				-0.19738104939460754
			],
			"type":"VEC3"
		},
		{
			"bufferView":1,
			"componentType":5126,
			"count":503,
			"type":"VEC3"
		},
		{
			"bufferView":2,
			"componentType":5126,
			"count":503,
			"type":"VEC2"
		},
		{
			"bufferView":3,
			"componentType":5123,
			"count":918,
			"type":"SCALAR"
		}
	],
	"bufferViews":[
		{
			"buffer":0,
			"byteLength":6036,
			"byteOffset":0,
			"target":34962
		},
		{
			"buffer":0,
			"byteLength":6036,
			"byteOffset":6036,
			"target":34962
		},
		{
			"buffer":0,
			"byteLength":4024,
			"byteOffset":12072,
			"target":34962
		},
		{
			"buffer":0,
			"byteLength":1836,
			"byteOffset":16096,
			"target":34963
		}
	],
	"samplers":[
		{
			"magFilter":9729,
			"minFilter":9987
		}
	],
	"buffers":[
		{
			"byteLength":17932,
			"uri":"Wall_Standard_Alt_2.bin"
		}
	]
}
